<mxfile host="app.diagrams.net" modified="2023-11-07T17:54:37.705Z" agent="Mozilla/5.0 (Windows NT 10.0; Win64; x64) AppleWebKit/537.36 (KHTML, like Gecko) Chrome/119.0.0.0 Safari/537.36" version="22.0.8" etag="bjt3r7gq8Y2AADvjtVMf" type="github">
  <diagram name="Page-1" id="OETvUUAAJJvCbn3XY137">
    <mxGraphModel>
      <root>
        <mxCell id="0" />
        <mxCell id="1" parent="0" />
      </root>
    </mxGraphModel>
  </diagram>
</mxfile>
